<svg xmlns="http://www.w3.org/2000/svg" aria-hidden="true" style="position:absolute;width:0;height:0;overflow:hidden">
  <defs>
    <symbol id="icon-trash" viewBox="0 0 32 32">
      <path d="M12 2.699h-.001a1.3 1.3 0 0 0-1.3 1.3v.002a1.3 1.3 0 0 0 1.3 1.3h8.002a1.3 1.3 0 0 0 1.3-1.3v-.002a1.3 1.3 0 0 0-1.3-1.3H20zm-8 4h-.001a1.3 1.3 0 0 0-1.3 1.3v.002a1.3 1.3 0 0 0 1.3 1.3h24.002a1.3 1.3 0 0 0 1.3-1.3v-.002a1.3 1.3 0 0 0-1.3-1.3H28z"/>
      <path d="M6.582 6.703A1.301 1.301 0 0 0 5.371 8.09v-.004l.801 12.02c.149 2.231.196 3.457.68 4.645a7.306 7.306 0 0 0 4.469 4.18c1.217.403 2.444.371 4.68.371s3.466.032 4.684-.371a7.3 7.3 0 0 0 4.465-4.18c.483-1.188.531-2.413.68-4.645l.801-12.02a1.301 1.301 0 0 0-1.203-1.383h-.004a1.3 1.3 0 0 0-1.387 1.207v.004l-.801 12.016c-.149 2.231-.246 3.235-.492 3.84a4.7 4.7 0 0 1-2.879 2.691c-.62.205-1.627.238-3.863.238s-3.244-.033-3.863-.238a4.699 4.699 0 0 1-2.875-2.691c-.246-.605-.347-1.609-.496-3.84L7.967 7.914A1.301 1.301 0 0 0 6.58 6.703h.004z"/>
    </symbol>
    <symbol id="icon-edit" viewBox="0 0 32 32">
      <path stroke-linejoin="round" stroke-linecap="round" stroke-miterlimit="4" stroke-width="2.6" d="M22.67 4.002c0.35-0.35 0.766-0.628 1.223-0.817s0.948-0.287 1.443-0.287c0.495 0 0.986 0.098 1.443 0.287s0.873 0.467 1.223 0.817c0.35 0.35 0.628 0.766 0.818 1.223s0.287 0.948 0.287 1.443-0.098 0.986-0.287 1.443c-0.19 0.458-0.467 0.873-0.818 1.223l-18 18-7.333 2 2-7.333 18-18z"></path>
    </symbol>
    <symbol id="icon-logout" viewBox="0 0 32 32">
      <path d="M20.146 2.57c-2.791 0-4.946.502-6.482 1.748s-2.328 3.179-2.545 5.697a.75.75 0 0 0 .68.81h.003a.75.75 0 0 0 .81-.678v-.003c.196-2.282.845-3.729 1.996-4.662s2.928-1.412 5.537-1.412h.174c2.88 0 4.732.573 5.877 1.719s1.719 2.997 1.719 5.877v8.693c0 2.88-.573 4.734-1.719 5.879s-2.997 1.719-5.877 1.719h-.174c-2.59 0-4.36-.473-5.51-1.393s-1.801-2.34-2.01-4.58a.752.752 0 0 0-.82-.678h.003a.752.752 0 0 0-.678.82v-.003c.231 2.48 1.033 4.386 2.566 5.613s3.677 1.721 6.447 1.721h.174c3.08 0 5.399-.62 6.938-2.158s2.158-3.859 2.158-6.939v-8.693c0-3.08-.62-5.399-2.158-6.938s-3.857-2.158-6.938-2.158z"/>
      <path d="M2.666 15.25a.75.75 0 0 0 0 1.5H19.84a.75.75 0 0 0 0-1.5H9.317z"/>
      <path d="M16.867 10.783h-.002a.75.75 0 0 0-.529 1.281l.508.506 3.43 3.43-3.938 3.936a.747.747 0 0 0 0 1.06.747.747 0 0 0 1.06 0l4.467-4.467a.747.747 0 0 0 0-1.06l-4.467-4.467a.75.75 0 0 0-.529-.219z"/>
    </symbol>
    <symbol id="icon-plus" viewBox="0 0 32 32">
      <path d="M16 5.228h-.001a1.44 1.44 0 0 0-1.44 1.437v18.67c0 .795.645 1.44 1.44 1.44h.002a1.44 1.44 0 0 0 1.44-1.44V6.665a1.44 1.44 0 0 0-1.44-1.438H16z"/>
      <path d="M6.666 14.559h-.001a1.44 1.44 0 0 0-1.44 1.44v.002c0 .795.645 1.44 1.44 1.44h18.67a1.44 1.44 0 0 0 1.438-1.44v-.002a1.44 1.44 0 0 0-1.437-1.44z"/>
    </symbol>
    <symbol id="icon-bell" viewBox="0 0 28 32">
      <path stroke-linejoin="round" stroke-linecap="round" stroke-miterlimit="4" stroke-width="3" d="M10.472 28c0.94 0.83 2.175 1.333 3.528 1.333s2.588-0.504 3.528-1.333M22 10.667c0-2.122-0.843-4.157-2.343-5.657s-3.535-2.343-5.657-2.343-4.157 0.843-5.657 2.343c-1.5 1.5-2.343 3.535-2.343 5.657 0 4.12-1.039 6.941-2.2 8.807-0.979 1.574-1.469 2.361-1.451 2.58 0.020 0.243 0.071 0.336 0.267 0.481 0.177 0.131 0.974 0.131 2.569 0.131h17.63c1.595 0 2.392 0 2.569-0.131 0.196-0.145 0.247-0.238 0.267-0.481 0.018-0.22-0.472-1.006-1.451-2.58-1.161-1.866-2.2-4.687-2.2-8.807z"></path>
    </symbol>
    <symbol id="icon-user" viewBox="0 0 32 32">
      <path d="M20.874 16.216c0 2.587-2.097 4.685-4.685 4.685s-4.685-2.097-4.685-4.685c0-2.587 2.097-4.685 4.685-4.685s4.685 2.097 4.685 4.685z"></path>
      <path d="M27.523 32.121c0-1.513-0.298-3.012-0.877-4.41s-1.428-2.668-2.498-3.738c-1.070-1.070-2.34-1.919-3.738-2.498s-2.896-0.877-4.41-0.877c-1.513 0-3.012 0.298-4.41 0.877s-2.668 1.428-3.738 2.498c-1.070 1.070-1.919 2.34-2.498 3.738s-0.877 2.896-0.877 4.41h23.046z"></path>
    </symbol>
    <symbol id="icon-container" viewBox="0 0 32 32">
      <path d="M15.462 1.58c-.476.098-.768.286-1.146.497L4.451 7.56c-.399.222-.733.374-1.08.75-.257.279-.45.612-.569.972-.16.486-.135.849-.135 1.306v10.823c0 .457-.025.823.135 1.309.119.36.312.689.569.969v.004c.347.376.681.528 1.08.75l9.865 5.483c.378.21.67.398 1.146.497a2.67 2.67 0 0 0 1.076 0c.476-.098.768-.287 1.146-.497l9.865-5.483h.004c.399-.222.73-.374 1.076-.75.258-.28.451-.612.569-.972.161-.486.135-.852.135-1.309V10.589c0-.457.025-.82-.135-1.306a2.673 2.673 0 0 0-.569-.972c-.346-.376-.677-.528-1.076-.75h-.004l-9.864-5.483c-.378-.21-.67-.399-1.146-.497a2.67 2.67 0 0 0-1.076 0zM16 4.191c-.076-.016.011.005.389.215l8.868 4.927L16 14.475 6.747 9.333l8.865-4.927c.378-.21.465-.231.389-.215zM5.333 11.597l9.333 5.188V27.07l-8.92-4.958c-.399-.222-.469-.29-.413-.229.026.078 0-.015 0-.472zm21.334 0v9.813c0 .457-.026.551 0 .472.056-.06-.014.007-.413.229l-8.92 4.958V16.784z"/>
    </symbol>
    <symbol id="icon-puzzle" viewBox="0 0 32 32">
      <path stroke-linejoin="round" stroke-linecap="round" stroke-miterlimit="4" stroke-width="2.6667" d="M16 2.667l4.8 4.8c3.2-8.4 12.133 0.533 3.733 3.733l4.8 4.8-4.8 4.8c-3.2-8.4-12.133 0.533-3.733 3.733l-4.8 4.8-4.8-4.8c-3.2 8.4-12.133-0.533-3.733-3.733l-4.8-4.8 4.8-4.8c3.2 8.4 12.133-0.533 3.733-3.733l4.8-4.8z"></path>
    </symbol>
    <symbol id="icon-star" viewBox="0 0 32 32">
      <path d="M16 1.333a1.335 1.335 0 0 0-1.24.845l-.003.009-2.684 6.976c-.376.978-.538 1.359-.698 1.583a2.674 2.674 0 0 1-.628.628c-.224.16-.606.322-1.583.698l-6.976 2.684a1.335 1.335 0 0 0-.009 2.483l.009.003 6.976 2.684c.978.376 1.359.538 1.583.698.243.173.456.386.628.628.16.224.322.606.698 1.583l2.684 6.976a1.335 1.335 0 0 0 2.483.009l.003-.009 2.684-6.976c.376-.978.538-1.359.698-1.583.173-.243.386-.456.628-.628.224-.16.606-.322 1.583-.698l6.976-2.684a1.335 1.335 0 0 0 .009-2.483l-.009-.003-6.976-2.684c-.978-.376-1.359-.538-1.583-.698a2.674 2.674 0 0 1-.628-.628c-.16-.224-.322-.606-.698-1.583l-2.684-6.976A1.335 1.335 0 0 0 16 1.333zm0 5.049 1.438 3.74c.376.978.588 1.572 1.014 2.17.345.486.771.911 1.257 1.257.598.425 1.193.638 2.17 1.014l3.74 1.438-3.74 1.438c-.977.376-1.572.588-2.17 1.014a5.357 5.357 0 0 0-1.257 1.257c-.425.598-.638 1.193-1.014 2.17L16 25.62l-1.438-3.74c-.376-.978-.589-1.572-1.014-2.17a5.339 5.339 0 0 0-1.257-1.257c-.598-.425-1.193-.638-2.17-1.014l-3.74-1.438 3.74-1.438c.978-.376 1.572-.589 2.17-1.014a5.339 5.339 0 0 0 1.257-1.257c.425-.598.638-1.193 1.014-2.17z"/>
    </symbol>
    <symbol id="icon-loading" viewBox="0 0 32 32">
      <path d="M16 1.34c-2.194 0-4.322.639-6.337 1.615-.33.133-.681.161-.997.344-.05.112-.085.243-.1.379l-.001.006c-1.005.603-2.072 1.079-2.938 1.944C1.099 10.156.308 16.871 2.953 22.336c.133.329.162.681.344.997.157.224.377.395.633.49l.009.003c.553.857.938 1.795 1.687 2.545 4.528 4.528 11.243 5.319 16.708 2.674.331-.133.683-.161 1-.344.259-.16.456-.398.56-.682l.003-.009c.83-.543 1.744-.91 2.472-1.639 4.528-4.528 5.319-11.243 2.674-16.708-.133-.33-.161-.681-.344-.997a1.344 1.344 0 0 0-.633-.49l-.009-.003c-.553-.857-.938-1.795-1.688-2.545A14.624 14.624 0 0 0 15.997 1.34zm1.531 2.952c2.53.331 5.005 1.272 6.955 3.222.881.881 1.432 1.934 1.983 2.979.988 2.207.438 4.804-1.611 6.191h-.004a5.027 5.027 0 0 1-5.781-.097l-1.208-.878.882-1.212a7.714 7.714 0 0 0 .15-8.844l-.008-.003-.021-.021c-.368-.539-.866-.922-1.337-1.337zm-3.885.764a5.016 5.016 0 0 1 3.038 2.087l.003.003a5.027 5.027 0 0 1-.101 5.781l-.878 1.212-1.212-.882a7.716 7.716 0 0 0-8.844-.153 1.349 1.349 0 0 0-.198.166l.194-.16c-.55.373-.936.881-1.358 1.361.33-2.532 1.271-5.007 3.222-6.958.88-.88 1.934-1.429 2.979-1.979 1.024-.458 2.117-.718 3.153-.479zm-3.594 9.395a5.03 5.03 0 0 1 2.875.965v-.003l1.212.882-.878 1.208a7.716 7.716 0 0 0-.153 8.844l.004.004c.373.55.882.936 1.361 1.358-2.532-.33-5.007-1.271-6.958-3.222-.88-.88-1.432-1.935-1.983-2.979-.987-2.21-.433-4.804 1.615-6.191a5.03 5.03 0 0 1 2.906-.865zm17.656 3.08c-.331 2.53-1.272 5.005-3.222 6.955-.881.881-1.937 1.432-2.983 1.983-2.209.983-4.798.431-6.184-1.615a5.033 5.033 0 0 1 .097-5.785l.878-1.205 1.208.878a7.714 7.714 0 0 0 8.844.153c.074-.05.139-.104.198-.163v-.004l-.194.16c.55-.372.936-.879 1.358-1.358z"/>
    </symbol>
    <symbol id="icon-lightning" viewBox="0 0 32 32">
      <path d="M11.326 1.333c-.239 0-.5-.03-.899.108-.28.097-.538.254-.75.462v.004c-.302.295-.393.539-.5.753L3.58 13.861c-.256.511-.611.87-.479 1.764a2 2 0 0 0 .83 1.347c.74.518 1.224.361 1.795.361h6.483L8.723 28.951a1.333 1.333 0 0 0 2.235 1.309l16.257-16.861c.274-.284.493-.506.698-.76s.475-.588.514-1.174a2.004 2.004 0 0 0-.705-1.66c-.448-.379-.876-.419-1.201-.448s-.636-.024-1.031-.024h-7.566l2.323-6.198a1.333 1.333 0 0 0-1.246-1.802zM11.49 4h5.583l-2.323 6.198A1.333 1.333 0 0 0 15.998 12h8.866L12.857 24.444l2.42-8.063A1.333 1.333 0 0 0 14 14.666H6.156z"/>
    </symbol>
    <symbol id="icon-hexagon" viewBox="0 0 32 32">
      <path d="M15.462 1.58c-.476.098-.768.286-1.146.497L4.451 7.56c-.399.222-.733.374-1.08.75-.257.279-.45.612-.569.972-.16.486-.135.849-.135 1.306v10.823c0 .457-.025.823.135 1.309.119.36.312.689.569.969v.004c.347.376.681.528 1.08.75l9.865 5.483c.378.21.67.398 1.146.497a2.67 2.67 0 0 0 1.076 0c.476-.098.768-.287 1.146-.497l9.865-5.483h.004c.399-.222.73-.374 1.076-.75.258-.28.451-.612.569-.972.161-.486.135-.852.135-1.309V10.589c0-.457.025-.82-.135-1.306a2.673 2.673 0 0 0-.569-.972c-.346-.376-.677-.528-1.076-.75h-.004l-9.864-5.483c-.378-.21-.67-.399-1.146-.497a2.67 2.67 0 0 0-1.076 0zM16 4.191c-.076-.016.011.005.389.215l9.868 5.483c.392.218.465.289.41.229-.026-.078 0 .012 0 .469V21.41c0 .457-.026.551 0 .472.056-.06-.014.007-.413.229l-9.865 5.479c-.378.21-.464.234-.389.219.076.016-.011-.009-.389-.219v.004l-9.865-5.483c-.399-.222-.469-.29-.413-.229.026.078 0-.015 0-.472V10.587c0-.457.026-.547 0-.469-.056.061.014-.007.413-.229l9.865-5.483c.378-.21.465-.231.389-.215z"/>
    </symbol>
    <symbol id="icon-palette" viewBox="0 0 32 32">
      <path stroke-linejoin="round" stroke-linecap="round" stroke-miterlimit="4" stroke-width="2.6667" d="M16 27.296c1.415 1.267 3.284 2.037 5.333 2.037 4.418 0 8-3.582 8-8 0-3.689-2.497-6.795-5.893-7.72M8.56 13.614c-3.396 0.925-5.894 4.031-5.894 7.72 0 4.418 3.582 8 8 8s8-3.582 8-8c0-1.041-0.199-2.035-0.56-2.947M24 10.667c0 4.418-3.582 8-8 8s-8-3.582-8-8 3.582-8 8-8c4.418 0 8 3.582 8 8z"></path>
    </symbol>
    <symbol id="icon-project" viewBox="0 0 32 32">
      <path stroke-linejoin="miter" stroke-linecap="butt" stroke-miterlimit="4" stroke-width="2.6667" d="M4.396 6.978c0.301-1.281 1.301-2.282 2.582-2.582v0c1.11-0.26 2.266-0.26 3.377 0v0c1.281 0.301 2.282 1.301 2.582 2.582v0c0.26 1.11 0.26 2.266 0 3.377v0c-0.301 1.281-1.301 2.282-2.582 2.582v0c-1.11 0.26-2.266 0.26-3.377 0v0c-1.281-0.301-2.282-1.301-2.582-2.582v0c-0.26-1.11-0.26-2.266 0-3.377v0z"></path>
      <path stroke-linejoin="miter" stroke-linecap="butt" stroke-miterlimit="4" stroke-width="2.6667" d="M4.396 21.645c0.301-1.281 1.301-2.282 2.582-2.582v0c1.11-0.261 2.266-0.261 3.377 0v0c1.281 0.3 2.282 1.301 2.582 2.582v0c0.26 1.111 0.26 2.266 0 3.377v0c-0.301 1.281-1.301 2.282-2.582 2.582v0c-1.11 0.261-2.266 0.261-3.377 0v0c-1.281-0.3-2.282-1.301-2.582-2.582v0c-0.26-1.111-0.26-2.266 0-3.377v0z"></path>
      <path stroke-linejoin="miter" stroke-linecap="butt" stroke-miterlimit="4" stroke-width="2.6667" d="M19.063 6.978c0.3-1.281 1.301-2.282 2.582-2.582v0c1.111-0.26 2.266-0.26 3.377 0v0c1.281 0.301 2.282 1.301 2.582 2.582v0c0.261 1.11 0.261 2.266 0 3.377v0c-0.3 1.281-1.301 2.282-2.582 2.582v0c-1.111 0.26-2.266 0.26-3.377 0v0c-1.281-0.301-2.282-1.301-2.582-2.582v0c-0.261-1.11-0.261-2.266 0-3.377v0z"></path>
      <path stroke-linejoin="miter" stroke-linecap="butt" stroke-miterlimit="4" stroke-width="2.6667" d="M19.063 21.645c0.3-1.281 1.301-2.282 2.582-2.582v0c1.111-0.261 2.266-0.261 3.377 0v0c1.281 0.3 2.282 1.301 2.582 2.582v0c0.261 1.111 0.261 2.266 0 3.377v0c-0.3 1.281-1.301 2.282-2.582 2.582v0c-1.111 0.261-2.266 0.261-3.377 0v0c-1.281-0.3-2.282-1.301-2.582-2.582v0c-0.261-1.111-0.261-2.266 0-3.377v0z"></path>
    </symbol> 
  </defs>
</svg>
